<svg xmlns="http://www.w3.org/2000/svg" width="22.116" height="24.772" viewBox="0 0 22.116 24.772">
  <path id="PRofile" d="M1.624,15.7C3.2,14.27,4.811,13.34,6.264,13.381S7.8,14.93,11.124,14.93s3.433-1.548,4.64-1.548a8.406,8.406,0,0,1,4.75,2.322,20.783,20.783,0,0,1,1.628,2.412,12.518,12.518,0,0,1-11.129,6.656A12.529,12.529,0,0,1,.027,18.386,6.174,6.174,0,0,1,1.624,15.7ZM10.9,0A6.414,6.414,0,1,1,4.5,6.414,6.414,6.414,0,0,1,10.9,0Z" transform="translate(-0.027 0)" fill="#fe3c72" fill-rule="evenodd"/>
</svg>
